<?xml version="1.0" encoding="utf-8"?>
<svg viewBox="0 0 500 500" width="500" height="500" xmlns="http://www.w3.org/2000/svg">
  <path style="stroke: rgb(0, 0, 0); fill: rgb(255, 255, 255); stroke-width: 21px; stroke-linejoin: round; stroke-linecap: square;" d="M 308.892 87.732 C 308.892 87.732 348.31 88.536 364.131 86.927 C 379.952 85.318 395.237 84.514 401.941 88 C 408.645 91.486 420.444 94.704 438.678 128.223 C 438.678 128.223 440.823 150.748 426.611 175.418 C 412.399 200.088 391.215 236.289 378.344 249.428 C 365.473 262.567 351.26 230.389 351.26 230.389 C 351.26 230.389 363.327 227.44 372.444 217.786 L 372.981 215.641 C 372.981 215.641 387.193 160.133 401.137 146.457 C 415.081 132.781 392.019 114.279 373.517 133.586 C 355.015 152.893 333.83 149.407 333.83 149.407 L 320.929 223.209 L 319.32 256.996 L 309.881 257.944 C 309.881 257.944 309.935 264.504 314.762 268.259 C 314.762 268.259 319.052 270.404 322.538 283.275 C 326.024 296.146 337.286 389.464 338.091 389.881 C 338.091 389.881 324.951 401.948 227.344 400.875 C 129.737 399.802 136.44 393.635 132.954 387.736 C 129.468 381.837 151.724 270.821 151.724 270.821 C 151.724 270.821 162.719 268.944 160.573 257.949 L 152.529 254.195 L 150.384 220.944 C 150.384 220.944 146.898 228.453 142.071 191.448 C 102.116 108.052 83.882 116.365 83.882 116.365 C 108.552 93.87 89.245 91.992 108.552 93.87 L 166.473 84.752 C 172.64 84.752 220.103 70.272 220.103 70.272 L 211.254 27.904 C 230.83 15.837 261.399 26.831 261.399 26.831 L 250.941 71.613 L 308.892 87.732 Z"/>
  <path style="stroke: rgb(0, 0, 0); fill: none; stroke-width: 11px;" d="M 160.287 257.96 C 157.895 260.883 289.889 263.95 309.714 257.567"/>
  <path style="stroke: rgb(0, 0, 0); fill: none; stroke-width: 11px;" d="M 150.753 220.974 C 161.552 229.867 336.79 227.105 320.529 220.766"/>
</svg>