<?xml version="1.0" encoding="utf-8"?>
<svg viewBox="0 0 500 500" width="500" height="500" xmlns="http://www.w3.org/2000/svg">
  <path style="stroke: rgb(0, 0, 0); fill: rgb(255, 255, 255); stroke-width: 22px; stroke-linejoin: round;" d="M 40.586 99.974 L 392.155 100.323 C 392.155 100.323 403.99 99.974 400.161 113.202 C 396.332 126.43 399.813 125.037 399.813 125.037 C 399.813 125.037 440.191 120.512 452.374 131.65 C 464.557 142.788 496.233 158.801 465.253 211.363 C 434.273 263.925 303.741 297.804 303.741 297.804 C 303.741 297.804 285.64 317.645 282.507 328.784 C 279.374 339.923 305.829 352.261 313.487 354.001 C 321.145 355.741 376.143 354.349 394.243 359.919 C 412.343 365.489 411.648 368.621 411.648 368.621 L 411.996 380.108 C 411.996 380.108 340.831 403.43 219.349 399.601 C 97.867 395.772 37.995 388.114 25.464 379.412 C 12.933 370.71 34.514 357.83 34.514 357.134 C 34.514 356.438 115.27 354.349 131.63 352.261 C 147.99 350.173 155.997 331.376 155.997 331.376 C 155.997 331.376 145.902 321.629 144.858 314.667 C 143.814 307.705 131.63 290.997 131.63 290.997 C 131.63 290.997 121.188 251.315 109.701 242.961 C 98.214 234.607 80.113 183.438 80.113 183.438 C 80.113 183.438 63.753 160.619 51.222 137.645 C 38.691 114.671 40.083 100.748 40.586 99.974 Z M 439.766 137.645 C 429.323 134.861 391.033 138.341 391.033 138.341 C 391.033 138.341 359.229 178.56 351.352 206.219 C 343.475 233.878 320.72 254.222 322.112 253.21 C 322.112 253.21 311.321 264.349 314.454 272.007 C 317.587 279.665 325.941 277.577 325.941 277.577 C 325.941 277.577 397.299 258.432 433.5 221.186 C 440.628 217.952 493.312 177.804 439.766 137.645 Z"/>
</svg>